/* XPM */
static char *icon32[] = {
/* columns rows colors chars-per-pixel */
"32 32 124 2",
"   c black",
".  c gray7",
"X  c gray8",
"o  c #151515",
"O  c gray10",
"+  c gray11",
"@  c #202020",
"#  c #222222",
"$  c gray17",
"%  c #313131",
"&  c #393939",
"*  c gray25",
"=  c #555555",
"-  c gray36",
";  c gray42",
":  c #7C7C7C",
">  c #808080",
",  c #838383",
"<  c gray54",
"1  c #8D8D8D",
"2  c gray57",
"3  c #959595",
"4  c gray59",
"5  c #979797",
"6  c #989898",
"7  c gray60",
"8  c #9A9A9A",
"9  c #9B9B9B",
"0  c gray61",
"q  c #9D9D9D",
"w  c gray62",
"e  c #9F9F9F",
"r  c #A0A0A0",
"t  c gray63",
"y  c #A2A2A2",
"u  c gray64",
"i  c #A4A4A4",
"p  c #A5A5A5",
"a  c gray66",
"s  c #A9A9A9",
"d  c #AAAAAA",
"f  c gray67",
"g  c #ACACAC",
"h  c gray68",
"j  c #AEAEAE",
"k  c #AFAFAF",
"l  c gray69",
"z  c #B1B1B1",
"x  c #B2B2B2",
"c  c gray70",
"v  c #B4B4B4",
"b  c gray71",
"n  c #B6B6B6",
"m  c gray72",
"M  c #B9B9B9",
"N  c gray73",
"B  c #BBBBBB",
"V  c #BCBCBC",
"C  c gray74",
"Z  c gray",
"A  c gray75",
"S  c #C0C0C0",
"D  c #C1C1C1",
"F  c gray76",
"G  c #C3C3C3",
"H  c gray77",
"J  c #C5C5C5",
"K  c #C6C6C6",
"L  c gray78",
"P  c #C8C8C8",
"I  c gray79",
"U  c #CACACA",
"Y  c #CBCBCB",
"T  c gray80",
"R  c #CDCDCD",
"E  c #CECECE",
"W  c gray81",
"Q  c #D0D0D0",
"!  c gray82",
"~  c #D2D2D2",
"^  c LightGray",
"/  c gray83",
"(  c #D5D5D5",
")  c gray84",
"_  c #D7D7D7",
"`  c #D8D8D8",
"'  c gray85",
"]  c #DADADA",
"[  c gray86",
"{  c gainsboro",
"}  c #DDDDDD",
"|  c gray87",
" . c #DFDFDF",
".. c gray88",
"X. c #E1E1E1",
"o. c #E2E2E2",
"O. c gray89",
"+. c #E4E4E4",
"@. c gray90",
"#. c #E6E6E6",
"$. c #E7E7E7",
"%. c gray91",
"&. c #E9E9E9",
"*. c #EAEAEA",
"=. c gray92",
"-. c #ECECEC",
";. c gray93",
":. c #EEEEEE",
">. c #EFEFEF",
",. c gray94",
"<. c #F1F1F1",
"1. c gray95",
"2. c #F3F3F3",
"3. c #F4F4F4",
"4. c gray96",
"5. c #F6F6F6",
"6. c gray97",
"7. c #F8F8F8",
"8. c #F9F9F9",
"9. c gray98",
"0. c #FBFBFB",
"q. c gray99",
"w. c gray100",
"e. c None",
/* pixels */
"e.e.e.e.e.e.e.e.e.e.e.e.e.e.e.e.e.e.e.e.e.e.e.e.e.e.e.e.e.e.e.e.",
"e.e.e.e.e.e.e.w.w.w.w.w.d d d d d d d d w.w.w.w.w.w.e.e.e.e.e.e.",
"e.e.e.e.c x v V A A A A A Z Z Z C C V V B B B B M z f z e.e.e.e.",
"e.e.e.A M R { } } } } { { { [ [ [ [ [ ] ] ] ] ] ] ] ~ n b e.e.e.",
"e.e.e.I J [ ] ] ] ] ' ' ' ' ' ' ' ` ` ` ` ` ` ` ` ` _ I C e.e.e.",
"e.e.e.H T ' ' ' ' ` ` _ _ _ _ _ ) ) ) ) ) ) ) ) ( ( ( R n e.e.e.",
"e.e.e.L ! ` ` _ _ _ ) ) ) ) ( ( ( ( ( / / / / / / / ^ ! B e.e.e.",
"e.e.> T ( _ _ _ _ ) ) ) ) ( ( ( ( / / / / / ^ ^ ^ ~ ~ ~ H   e.e.",
"e.  Y ! _ _ _ ) ) ) ) ( ( ( ( ( / / / / ^ ^ ^ ~ ~ ~ ~ ! Y J e.e.",
"e.  ` ( _ _ ) ) ) ) ( ( ( ( / / / / / ^ ^ ^ ~ ~ ~ ~ ! ! Q E   e.",
"    ] _ _ _ _ _ _ ) ) ) ) ( ( ( ( / / / ^ ^ ^ ^ ^ ~ ~ ~ ~ !     ",
"    | ^ ^ ^ ^ ^ ^ ^ ^ ^ ~ ~ ~ ~ ! ! ! ! ! ! ! ! ! ! ! Q Q /     ",
"    X.W W W E E W W E E E E R R E R R R R R T T T R T T T '     ",
"  - 1.( U Y Y Y Y U U U U I U U I I I I P P P I I P P P R o.    ",
"  % 0.<.( Y U U U U U U I I P P I I I P I I I P P P P W &.*.    ",
"    o.w.q.9.9.9.9.9.8.8.8.8.8.8.8.8.8.7.7.7.7.6.6.5.4.7.8.Y     ",
"    v ` w.w.w.w.w.w.w.w.w.w.w.w.w.w.w.w.w.w.w.w.w.w.w.w.J i     ",
"    x w t 5 5 7 7 7 8 8 8 9 9 q w w w w w e e e e , 1 4 4 a     ",
"    N x y < < a V V V V C C C Z Z A A A S S D D D , : 4 f j     ",
"    H J l q 0 { <.1.1.1.1.1.1.1.1.1.2.2.2.2.2.2.2.s 2 p C M     ",
"    E ( V j j 1.w.w.w.w.w.w.w.w.w.w.w.w.w.w.w.w.w.G i v W K &   ",
"  ; _  .K N N -.<.<.<.<.,.=.=.*.=.=.=.#.+.+.+.+.O.L v G [ Q e   ",
"  t  .$._ J J J J J G G G F F F F F F F F F F F D D D ( @.] a   ",
"  n %.:.;...[ [ ] ] ] ] ] ] ] ] ] ] ] ] ] [ [ ] ] ] ..=.-.@.p   ",
"  c ,.3.3.3.3.3.2.2.2.2.2.2.2.2.2.2.2.2.2.2.2.2.1.2.2.2.1.>.r   ",
"  x 5.6.6.6.6.6.6.6.6.6.6.6.6.6.6.6.6.6.6.6.6.6.6.6.6.6.6.6.y   ",
"  v 9.9.9.9.9.9.9.9.9.9.9.9.9.9.9.9.9.9.9.9.9.9.9.9.9.9.9.9.u   ",
"e.v :.q.9.8.5.2.:.=.$.O.| ' ( ^ ^ / _ { X.@.&.;.,.4.6.9.0.-.t e.",
"d g k D P J S B n k d i e 9 5 3 4 4 7 0 e i d k b m V A b e 5 > ",
"e.w.j h g d a p i u e w 0 7 7 5 5 5 4 4 6 6 7 9 0 0 q r t u d w.",
"e.e.e.e.e.e.      $ @ O X . . @ # # X o + @ * =     e.e.e.e.e.e.",
"e.e.e.e.e.e.e.e.                                e.e.e.e.e.e.e.e."
};
