/* XPM */
static char *icon32[] = {
/* columns rows colors chars-per-pixel */
"32 32 121 2",
"   c black",
".  c gray8",
"X  c gray9",
"o  c gray10",
"O  c #202020",
"+  c #222222",
"@  c gray14",
"#  c gray17",
"$  c #313131",
"%  c gray25",
"&  c gray30",
"*  c #555555",
"=  c #606060",
"-  c gray39",
";  c #6D6D6D",
":  c #7C7C7C",
">  c #808080",
",  c gray51",
"<  c #838383",
"1  c gray54",
"2  c gray55",
"3  c #909090",
"4  c gray59",
"5  c #979797",
"6  c #989898",
"7  c gray60",
"8  c #9A9A9A",
"9  c #9B9B9B",
"0  c gray61",
"q  c #9D9D9D",
"w  c gray62",
"e  c #9F9F9F",
"r  c #A0A0A0",
"t  c gray63",
"y  c #A2A2A2",
"u  c gray64",
"i  c #A4A4A4",
"p  c #A5A5A5",
"a  c gray65",
"s  c gray66",
"d  c #A9A9A9",
"f  c #AAAAAA",
"g  c gray67",
"h  c #ACACAC",
"j  c #AEAEAE",
"k  c #AFAFAF",
"l  c gray69",
"z  c #B2B2B2",
"x  c gray70",
"c  c #B4B4B4",
"v  c gray71",
"b  c #B6B6B6",
"n  c #B7B7B7",
"m  c gray72",
"M  c #B9B9B9",
"N  c gray73",
"B  c #BBBBBB",
"V  c #BCBCBC",
"C  c gray74",
"Z  c gray",
"A  c gray75",
"S  c #C0C0C0",
"D  c #C1C1C1",
"F  c gray76",
"G  c #C3C3C3",
"H  c gray77",
"J  c #C5C5C5",
"K  c #C6C6C6",
"L  c #C8C8C8",
"P  c gray79",
"I  c #CACACA",
"U  c #CBCBCB",
"Y  c gray80",
"T  c #CDCDCD",
"R  c #CECECE",
"E  c gray81",
"W  c #D0D0D0",
"Q  c gray82",
"!  c #D2D2D2",
"~  c LightGray",
"^  c gray83",
"/  c #D5D5D5",
"(  c gray84",
")  c #D7D7D7",
"_  c #D8D8D8",
"`  c gray85",
"'  c #DADADA",
"]  c gray86",
"[  c gainsboro",
"{  c #DDDDDD",
"}  c gray87",
"|  c #DFDFDF",
" . c gray88",
".. c #E1E1E1",
"X. c gray89",
"o. c #E4E4E4",
"O. c gray90",
"+. c #E7E7E7",
"@. c gray91",
"#. c #E9E9E9",
"$. c #EAEAEA",
"%. c gray92",
"&. c #ECECEC",
"*. c gray93",
"=. c #EEEEEE",
"-. c #EFEFEF",
";. c gray94",
":. c #F1F1F1",
">. c gray95",
",. c #F3F3F3",
"<. c #F4F4F4",
"1. c gray96",
"2. c #F6F6F6",
"3. c gray97",
"4. c #F8F8F8",
"5. c #F9F9F9",
"6. c gray98",
"7. c #FBFBFB",
"8. c gray99",
"9. c gray100",
"0. c None",
/* pixels */
"0.0.0.0.0.0.0.0.0.0.0.0.0.0.0.0.0.0.0.0.0.0.0.0.0.0.0.0.0.0.0.0.",
"0.0.0.0.0.0.0.9.9.9.9.9.f f f f f f f f 9.9.9.9.9.9.0.0.0.0.0.0.",
"0.0.0.0.n v z C A A A A A Z C C C C V V V V B B B z h k 0.0.0.0.",
"0.0.0.F M T [ { [ [ [ [ [ [ [ [ ] ] ] ] ' ' ' ' ' ' ! b x 0.0.0.",
"0.0.0.U J ] ] ' ' ' ' ` ` ` ` ` ` ` ` _ _ _ _ _ _ _ _ P Z 0.0.0.",
"0.0.0.K Y ` ` ` ` _ _ _ _ ) ) ) ) ( ( ( ( ( ( / / / / R m 0.0.0.",
"0.0.0.L Q _ _ _ ) ) ) ) ( ( ( ( / / / / ^ ^ ^ ^ ^ ^ ^ Q B 0.0.0.",
"0.0.> Y / ) ) ) ) ) ( ( ( ( / / / / ^ ^ ^ ^ ~ ~ ~ ~ ! ! J   0.0.",
"0.  H ! ) ) ) ) ) ( ( ( ( / / / / ^ ^ ^ ^ ~ ~ ~ ~ ! ! ! T H 0.0.",
"0.  ' / ) ) ) ( ( ( ( / / / / ^ ^ ^ ^ ~ ~ ~ ~ ! ! ! ! Q W U   0.",
"    ` ) ` ` ) ) ) ) ( ( ( ( / / / / ^ ^ ^ ^ ~ ~ ~ ~ ! ! ! Q     ",
"    } ^ ^ ~ ~ ~ ~ ~ ~ ~ ~ ! ! ! ! Q Q ! ! Q Q Q Q W Q Q Q /     ",
"    o.E E E E R R R E R R R R T T T R T T T T Y Y T T Y Y `     ",
"  = >./ U U I I I U I I I I P P I I P P P P L L P P L L Y o.    ",
"  $ 7.:.( U I I I I I I P P P I P P P P L L L P L L L E @.$.    ",
"    ..9.7.5.5.4.4.4.4.4.4.4.4.4.4.4.4.3.2.2.2.1.1.<.<.3.6.U     ",
"    c ) 9.9.9.9.9.9.9.9.9.9.9.9.9.9.9.9.9.9.9.9.9.9.9.9.K u     ",
"    x w t 5 5 7 7 7 7 8 8 9 9 9 0 0 0 0 0 0 q q q , 2 5 4 s     ",
"    N z y 1 1 s B V V V C C C Z Z Z A A A S S D D < : 4 g l     ",
"    H J l 0 0 [ :.:.:.:.:.>.>.>.>.>.>.>.>.>.,.,.,.s 3 p C M     ",
"    E / V j j >.9.9.9.9.9.9.9.9.9.9.9.9.9.9.9.9.9.D i c E K &   ",
"  - _ | K B M &.:.:.:.:.-.*.%.%.%.%.%.%.$.O.O.O.O.L c G [ W 7   ",
"  t | +.) G J H H H G F G F F F F F D D D D F D D D D / O.] f   ",
"  c @.*.*. .' ` ` ` ` ` _ _ ` _ _ _ _ _ _ _ _ _ _ ` ..&.&.O.d   ",
"  x ;.<.<.,.,.,.<.,.,.,.,.,.,.,.,.,.,.,.,.,.,.,.>.,.,.,.>.=.y   ",
"  x 2.3.3.3.3.3.3.3.3.3.3.3.3.3.3.3.3.3.3.3.3.3.3.3.3.3.3.3.y   ",
"  x 5.6.6.6.6.6.6.6.6.6.6.6.6.6.6.6.6.6.6.6.6.6.6.6.6.6.6.6.u   ",
"0.c =.8.7.5.2.,.=.%.+.X.} ` / ~ ~ ^ ) ] ..o.#.*.;.1.4.6.8.&.y 0.",
"> f l F L I K F B c k d i e q 9 9 9 w t p f k v B A G A b w 7 ; ",
"0.9.g j h g d a i y r w 8 7 7 6 6 5 5 4 6 7 7 0 9 q w r t y > 9.",
"0.0.0.0.0.0.      # O X . @ O O O + @ # o O % *     0.0.0.0.0.0.",
"0.0.0.0.0.0.0.0.                                0.0.0.0.0.0.0.0."
};
