/* XPM */
static char *icon__[] = {
/* columns rows colors chars-per-pixel */
"16 16 62 1",
"  c #929292",
". c #9B9B9B",
"X c #9C9C9C",
"o c #9E9E9E",
"O c #9F9F9F",
"+ c #A0A0A0",
"@ c #A1A1A1",
"# c #A6A6A6",
"$ c #AAAAAA",
"% c #AEAEAE",
"& c #AFAFAF",
"* c #B0B0B0",
"= c #B3B3B3",
"- c #B4B4B4",
"; c #B5B5B5",
": c #B6B6B6",
"> c #BABABA",
", c #BBBBBB",
"< c #BDBDBD",
"1 c #BFBFBF",
"2 c #C3C3C3",
"3 c #C4C4C4",
"4 c #C6C6C6",
"5 c #C7C7C7",
"6 c #C9C9C9",
"7 c #CACACA",
"8 c #CBCBCB",
"9 c #CCCCCC",
"0 c #CDCDCD",
"q c #CECECE",
"w c #CFCFCF",
"e c #D0D0D0",
"r c #D1D1D1",
"t c #D2D2D2",
"y c #D3D3D3",
"u c #D4D4D4",
"i c #D5D5D5",
"p c #D6D6D6",
"a c #D7D7D7",
"s c #D8D8D8",
"d c #D9D9D9",
"f c #DADADA",
"g c #DBDBDB",
"h c #DCDCDC",
"j c #DDDDDD",
"k c #DEDEDE",
"l c #DFDFDF",
"z c #E0E0E0",
"x c #E1E1E1",
"c c #E5E5E5",
"v c #E7E7E7",
"b c #F1F1F1",
"n c #F3F3F3",
"m c #F4F4F4",
"M c #F5F5F5",
"N c #F6F6F6",
"B c #F7F7F7",
"V c #F8F8F8",
"C c #F9F9F9",
"Z c #FBFBFB",
"A c #FCFCFC",
"S c None",
/* pixels */
"SSSSSSSSSSSSSSSS",
"SS:7qqqqqq773:SS",
"SSrdaaaaaaaaar,S",
"S3aaaaaaarrarr:S",
"Sqaaaraaarrrrr3S",
"SdaaaararaaaarrS",
"Shqq7qqqq7q7q7aS",
"SbchhhhhhddddhzS",
"S*7rrrrrrrrrq2#S",
"S1o%hhhhzhzz1 :S",
"Sa,aVmmmmmbmh:rS",
"ScdrrrrrqqqqqdcS",
"SmVmVmmmmmmmmmmS",
"SVAAVVAmVVAVAAVS",
"S:,:%#@ooo@#$*#S",
"SSSSSSSSSSSSSSSS"
};
