/* XPM */
static char *icon__[] = {
/* columns rows colors chars-per-pixel */
"32 32 106 2",
"   c #7C7C7C",
".  c #828282",
"X  c #838383",
"o  c #8A8A8A",
"O  c #8C8C8C",
"+  c #919191",
"@  c #969696",
"#  c #979797",
"$  c #989898",
"%  c #999999",
"&  c #9A9A9A",
"*  c #9B9B9B",
"=  c #9C9C9C",
"-  c #9D9D9D",
";  c #9E9E9E",
":  c #9F9F9F",
">  c #A0A0A0",
",  c #A1A1A1",
"<  c #A2A2A2",
"1  c #A3A3A3",
"2  c #A4A4A4",
"3  c #A5A5A5",
"4  c #A6A6A6",
"5  c #A8A8A8",
"6  c #A9A9A9",
"7  c #AAAAAA",
"8  c #ABABAB",
"9  c #ACACAC",
"0  c #ADADAD",
"q  c #AEAEAE",
"w  c #AFAFAF",
"e  c #B0B0B0",
"r  c #B1B1B1",
"t  c #B2B2B2",
"y  c #B3B3B3",
"u  c #B4B4B4",
"i  c #B6B6B6",
"p  c #B7B7B7",
"a  c #B8B8B8",
"s  c #BABABA",
"d  c #BBBBBB",
"f  c #BCBCBC",
"g  c #BDBDBD",
"h  c #BEBEBE",
"j  c #BFBFBF",
"k  c #C0C0C0",
"l  c #C1C1C1",
"z  c #C2C2C2",
"x  c #C3C3C3",
"c  c #C4C4C4",
"v  c #C5C5C5",
"b  c #C6C6C6",
"n  c #C7C7C7",
"m  c #C8C8C8",
"M  c #C9C9C9",
"N  c #CACACA",
"B  c #CBCBCB",
"V  c #CCCCCC",
"C  c #CDCDCD",
"Z  c #CECECE",
"A  c #CFCFCF",
"S  c #D0D0D0",
"D  c #D1D1D1",
"F  c #D2D2D2",
"G  c #D3D3D3",
"H  c #D4D4D4",
"J  c #D5D5D5",
"K  c #D6D6D6",
"L  c #D7D7D7",
"P  c #D8D8D8",
"I  c #D9D9D9",
"U  c #DADADA",
"Y  c #DBDBDB",
"T  c #DCDCDC",
"R  c #DDDDDD",
"E  c #DEDEDE",
"W  c #DFDFDF",
"Q  c #E0E0E0",
"!  c #E1E1E1",
"~  c #E2E2E2",
"^  c #E3E3E3",
"/  c #E5E5E5",
"(  c #E7E7E7",
")  c #E8E8E8",
"_  c #E9E9E9",
"`  c #EAEAEA",
"'  c #EBEBEB",
"]  c #ECECEC",
"[  c #EDEDED",
"{  c #EEEEEE",
"}  c #EFEFEF",
"|  c #F0F0F0",
" . c #F1F1F1",
".. c #F2F2F2",
"X. c #F3F3F3",
"o. c #F4F4F4",
"O. c #F5F5F5",
"+. c #F6F6F6",
"@. c #F7F7F7",
"#. c #F8F8F8",
"$. c #F9F9F9",
"%. c #FAFAFA",
"&. c #FBFBFB",
"*. c #FCFCFC",
"=. c #FFFFFF",
"-. c None",
/* pixels */
"-.-.-.-.-.-.-.-.-.-.-.-.-.-.-.-.-.-.-.-.-.-.-.-.-.-.-.-.-.-.-.-.",
"-.-.-.-.-.-.-.-.-.-.-.-.-.-.-.-.-.-.-.-.-.-.-.-.-.-.-.-.-.-.-.-.",
"-.-.-.-.-.t t g k g k g k g g g g g g g g d d g d t 9 -.-.-.-.-.",
"-.-.-.-.d V R R R R R R R R R I R I R I R I I I I I F i -.-.-.-.",
"-.-.-.V v I R I I I R I I I I I I I I K I K I K K I I N g -.-.-.",
"-.-.-.v V I I I I I I K I K I K K K K K K K K K K K K V d -.-.-.",
"-.-.-.v F K I I K K K K K K K K K F K K K F K F K F F F d -.-.-.",
"-.-.-.N K I K K I K K K K K F K K K F K F K F K F K F F v -.-.-.",
"-.-.-.K I K K K K K K K F K K K K K F K K F K F F F F F V -.-.-.",
"-.-.-.K K K I K K K K K K K K F F F K F F F F F F F F V F -.-.-.",
"-.-.R K K I K I K K K K K K K K K K K K K F F F F F F F F F -.-.",
"-.-.R F F K F K F K F F F F F K F V V F F F F F F F F F F K -.-.",
"-.-.! F V F V V V F V V F V V V V V V V V V V N V N V N N I -.-.",
"-.-...K N N V N N N N N N N N N V N N N N N N N N N N N V ! -.-.",
"-.-.*...K N N N N N N N N N N v N N N N v N N N N v N V ' ' -.-.",
"-.-.! *.*.$.$.$.$.$.@.$.$.$.@.@.@.@.@.@...@.@...@.@...@.$.V -.-.",
"-.-.i I *.*.*.*.*.*.*.*.*.*.*.*.*.*.*.*.*.*.*.*.*.*.*.*.N 4 -.-.",
"-.-.i - 4 $ $ $ - $ - $ - - - - - - - - - - > - - X O @ $ 6 -.-.",
"-.-.d t > o o 6 g g g g g g g g g g k k k k k k k X   @ 9 9 -.-.",
"-.-.v v t - - I ..............@.......@.....@.@.@.6 + 4 g d -.-.",
"-.-.V K g 9 t ..*.*.*.*.*.*.*.*.*.*.*.*.*.*.*.*.*.k 4 i F v -.-.",
"-.-.K ! v g d [ ......@...[ [ [ [ [ [ [ ' ' ( ( ( N t k I F -.-.",
"-.-.! ( K v v v v v k k v k k k k k k k k k k k k k k K ( I -.-.",
"-.-.' [ [ ! R R I I I I I I I K I I I I I I I I I I ! ' [ ( -.-.",
"-.-.....@.....@...@...........@.....@.......@.....@.....@.[ -.-.",
"-.-.@.$.@.@.@.@.@.$.@.@.@.$.@.@.@.@.@.$.@.@.@.@.@.@.@.@.@.@.-.-.",
"-.-.$.$.$.$.$.$.$.*.$.$.$.$.$.$.$.$.$.$.$.$.$.$.$.$.$.$.$.$.-.-.",
"-.-.[ *.$.@.@.@.[ ' ( ( R I K K F K I I ! ( ' [ ..@.@.$.*.[ -.-.",
"-.-.t k N V N k g i t 6 4 > - - $ - - > 4 6 t i g k v k i - -.-.",
"-.-.-.9 9 6 6 4 > 4 - - - $ $ $ $ $ $ @ $ $ $ - - - - > > -.-.-.",
"-.-.-.-.-.-.-.-.-.-.-.-.-.-.-.-.-.-.-.-.-.-.-.-.-.-.-.-.-.-.-.-.",
"-.-.-.-.-.-.-.-.-.-.-.-.-.-.-.-.-.-.-.-.-.-.-.-.-.-.-.-.-.-.-.-."
};
