/* XPM */
static char *icon16[] = {
/* columns rows colors chars-per-pixel */
"16 16 73 1",
"  c black",
". c gray14",
"X c #393939",
"o c #808080",
"O c #929292",
"+ c #989898",
"@ c #9B9B9B",
"# c gray61",
"$ c #9F9F9F",
"% c #A0A0A0",
"& c gray63",
"* c #A4A4A4",
"= c #A5A5A5",
"- c gray65",
"; c #A7A7A7",
": c #AAAAAA",
"> c gray67",
", c #ACACAC",
"< c #AEAEAE",
"1 c #AFAFAF",
"2 c gray69",
"3 c gray70",
"4 c #B4B4B4",
"5 c gray71",
"6 c #B6B6B6",
"7 c gray73",
"8 c #BBBBBB",
"9 c gray74",
"0 c gray75",
"q c gray77",
"w c #C5C5C5",
"e c gray78",
"r c #C8C8C8",
"t c #CACACA",
"y c #CBCBCB",
"u c gray80",
"i c #CDCDCD",
"p c #CECECE",
"a c gray81",
"s c #D0D0D0",
"d c gray82",
"f c #D2D2D2",
"g c LightGray",
"h c gray83",
"j c #D5D5D5",
"k c gray84",
"l c #D7D7D7",
"z c #D8D8D8",
"x c gray85",
"c c #DADADA",
"v c gray86",
"b c gainsboro",
"n c #DDDDDD",
"m c gray87",
"M c #DFDFDF",
"N c gray88",
"B c #E1E1E1",
"V c #E2E2E2",
"C c #E4E4E4",
"Z c gray90",
"A c #E7E7E7",
"S c gray95",
"D c #F3F3F3",
"F c #F4F4F4",
"G c gray96",
"H c #F6F6F6",
"J c gray97",
"K c #F8F8F8",
"L c #F9F9F9",
"P c gray98",
"I c #FBFBFB",
"U c gray99",
"Y c None",
/* pixels */
"YYYYYYY  YYYYYYY",
"Y:6tppiiuuyye30Y",
"Yrdxxzzzzllkkd6Y",
"Ywjzllkkjjhhgg5Y",
" pllkkjjhhggffqY",
" zkjkjjhjhhhhgd ",
".niiiuuuuyuyytj ",
" SZmnnmnbbcccmV ",
" 6ygffffffffaw; ",
" 9$<bnmmMNNB0O4 ",
"Xz7hKFDDDDDDb4do",
"5AvssppppppppcC*",
",FHHHHGGGGGGGHF+",
"2KIIPLJJKKLIUUJ$",
":684<=%#@#&->1;O",
"YYY          YYY"
};
