/* XPM */
static char *icon32[] = {
/* columns rows colors chars-per-pixel */
"32 32 107 2 ",
"   c #7C7C7C",
".  c #838383",
"X  c gray54",
"o  c #8D8D8D",
"O  c gray57",
"+  c #959595",
"@  c gray59",
"#  c #979797",
"$  c #989898",
"%  c gray60",
"&  c #9A9A9A",
"*  c #9B9B9B",
"=  c gray61",
"-  c #9D9D9D",
";  c gray62",
":  c #9F9F9F",
">  c #A0A0A0",
",  c gray63",
"<  c #A2A2A2",
"1  c gray64",
"2  c #A4A4A4",
"3  c #A5A5A5",
"4  c gray66",
"5  c #A9A9A9",
"6  c #AAAAAA",
"7  c gray67",
"8  c #ACACAC",
"9  c gray68",
"0  c #AEAEAE",
"q  c #AFAFAF",
"w  c gray69",
"e  c #B1B1B1",
"r  c #B2B2B2",
"t  c #B4B4B4",
"y  c gray71",
"u  c #B6B6B6",
"i  c gray72",
"p  c #B9B9B9",
"a  c gray73",
"s  c #BBBBBB",
"d  c #BCBCBC",
"f  c gray74",
"g  c gray",
"h  c gray75",
"j  c #C0C0C0",
"k  c #C1C1C1",
"l  c gray76",
"z  c #C3C3C3",
"x  c gray77",
"c  c #C5C5C5",
"v  c #C6C6C6",
"b  c gray78",
"n  c #C8C8C8",
"m  c gray79",
"M  c #CACACA",
"N  c #CBCBCB",
"B  c gray80",
"V  c #CDCDCD",
"C  c #CECECE",
"Z  c gray81",
"A  c #D0D0D0",
"S  c gray82",
"D  c #D2D2D2",
"F  c LightGray",
"G  c gray83",
"H  c #D5D5D5",
"J  c gray84",
"K  c #D7D7D7",
"L  c #D8D8D8",
"P  c gray85",
"I  c #DADADA",
"U  c gray86",
"Y  c gainsboro",
"T  c #DDDDDD",
"R  c gray87",
"E  c #DFDFDF",
"W  c gray88",
"Q  c #E1E1E1",
"!  c #E2E2E2",
"~  c gray89",
"^  c #E4E4E4",
"/  c gray90",
"(  c #E6E6E6",
")  c #E7E7E7",
"_  c gray91",
"`  c #E9E9E9",
"'  c #EAEAEA",
"]  c gray92",
"[  c #ECECEC",
"{  c gray93",
"}  c #EEEEEE",
"|  c #EFEFEF",
" . c gray94",
".. c #F1F1F1",
"X. c gray95",
"o. c #F3F3F3",
"O. c #F4F4F4",
"+. c gray96",
"@. c #F6F6F6",
"#. c gray97",
"$. c #F8F8F8",
"%. c #F9F9F9",
"&. c gray98",
"*. c #FBFBFB",
"=. c gray99",
"-. c gray100",
";. c None",
/* pixels */
";.;.;.;.;.;.;.;.;.;.;.;.;.;.;.;.;.;.;.;.;.;.;.;.;.;.;.;.;.;.;.;.",
";.;.;.;.;.;.;.;.;.;.;.;.;.;.;.;.;.;.;.;.;.;.;.;.;.;.;.;.;.;.;.;.",
";.;.;.;.;.r t d d j j d j d d d d d d d d d d p p r 8 ;.;.;.;.;.",
";.;.;.;.p B T T T T T T T T T T T P T P P P P P P P A p ;.;.;.;.",
";.;.;.N c P P T P P P P P P P P P P P P P J P P P J P N d ;.;.;.",
";.;.;.c B P P P P P P P P J J J J J J J J J J J J J J B t ;.;.;.",
";.;.;.c A P P J J J J J J J J J J J A A J J A J A J A A d ;.;.;.",
";.;.;.N J J P J J J J J J J J A J J J J A J J A J A J A c ;.;.;.",
";.;.;.A P J J J J J J J J J A J A J J J A J A J A A J A N ;.;.;.",
";.;.;.J J J J J J J J J J J J J J J A A J J A A A J A A A ;.;.;.",
";.;.P P P P J J P J J J J J J J J A J J A J J A J A A J A A ;.;.",
";.;.T A A J A J A A J A A J A A A A A A A A A A A A A A A J ;.;.",
";.;.~ B B A B B A A N B B B B B A B B B B B B N B B B B B P ;.;.",
";.;.o.J N B N N N N N N N N N N N N N N c c N N N c N N B ~ ;.;.",
";.;.=.o.J N N N N N N N N c N c c N N c N N N c N c c B ' ' ;.;.",
";.;.~ =.=.&.&.&.&.&.#.&.&.&.&.#.&.&.&.#.#.#.&.#.#.#.#.#.&.B ;.;.",
";.;.t P =.=.=.=.=.=.=.=.=.=.=.=.=.=.=.=.=.=.=.=.=.=.=.=.c 3 ;.;.",
";.;.r : 3 $ $ $ $ $ : $ : $ : : : : : , : , , , , . o @ $ 5 ;.;.",
";.;.p t , X X 3 d d p d d d d d d d j d d j j j j .   @ 8 8 ;.;.",
";.;.j c r : : P o.#.o.o.o.o.o.#.#.o.o.#.o.o.#.#.#.5 O 3 d p ;.;.",
";.;.B J d 8 r o.=.=.=.=.=.=.=.=.=.=.=.=.=.=.=.=.=.c 3 t A c ;.;.",
";.;.J ~ c p p { o.o.o.o.o.{ { ' { { { ) ) ) ~ ) ) c t j T A ;.;.",
";.;.T ) J c c c c c j c c j j j j c j j j j j c j j j J ) P ;.;.",
";.;.' { { ~ P T P T P P P P T P P P P T P T T P P P ~ ' ' ) ;.;.",
";.;.{ #.o.o.o.#.o.o.o.o.o.o.o.o.o.o.o.o.o.o.o.o.o.#.o.o.o.{ ;.;.",
";.;.#.&.#.#.#.#.#.#.#.#.#.#.#.&.#.#.#.&.#.#.#.#.#.#.#.#.#.#.;.;.",
";.;.&.&.&.&.&.&.&.&.&.&.&.&.&.=.&.&.&.&.&.&.&.&.&.&.&.&.&.&.;.;.",
";.;.{ =.&.#.#.o.{ ' ) ) T P J A J A J T T ) ' { { #.#.&.&.{ ;.;.",
";.;.r j c c j d t r 5 , : : @ @ @ @ $ : : 3 5 8 t t d d t , ;.;.",
";.;.;.8 8 5 5 3 3 3 : : $ $ $ @ @ @ @ @ $ $ $ : : : : , , ;.;.;.",
";.;.;.;.;.;.;.;.;.;.;.;.;.;.;.;.;.;.;.;.;.;.;.;.;.;.;.;.;.;.;.;.",
";.;.;.;.;.;.;.;.;.;.;.;.;.;.;.;.;.;.;.;.;.;.;.;.;.;.;.;.;.;.;.;."
};
