/* XPM */
static char *icon16[] = {
/* columns rows colors chars-per-pixel */
"16 16 73 1",
"  c black",
". c #202020",
"X c gray20",
"o c #808080",
"O c #929292",
"+ c gray60",
"@ c #9A9A9A",
"# c #9B9B9B",
"$ c gray62",
"% c #9F9F9F",
"& c #A0A0A0",
"* c #A4A4A4",
"= c #A5A5A5",
"- c gray65",
"; c #AAAAAA",
": c #ACACAC",
"> c #AFAFAF",
", c gray70",
"< c #B4B4B4",
"1 c gray71",
"2 c #B6B6B6",
"3 c #B7B7B7",
"4 c #B9B9B9",
"5 c gray73",
"6 c #BBBBBB",
"7 c #BCBCBC",
"8 c gray",
"9 c #C0C0C0",
"0 c gray77",
"q c #C5C5C5",
"w c #C6C6C6",
"e c gray78",
"r c gray79",
"t c #CACACA",
"y c #CBCBCB",
"u c gray80",
"i c #CDCDCD",
"p c #CECECE",
"a c gray81",
"s c #D0D0D0",
"d c gray82",
"f c #D2D2D2",
"g c LightGray",
"h c gray83",
"j c #D5D5D5",
"k c gray84",
"l c #D7D7D7",
"z c #D8D8D8",
"x c gray85",
"c c #DADADA",
"v c gray86",
"b c gainsboro",
"n c #DDDDDD",
"m c gray87",
"M c #DFDFDF",
"N c gray88",
"B c #E1E1E1",
"V c #E2E2E2",
"C c gray90",
"Z c #E7E7E7",
"A c gray91",
"S c #F1F1F1",
"D c gray95",
"F c #F3F3F3",
"G c #F4F4F4",
"H c gray96",
"J c #F6F6F6",
"K c gray97",
"L c #F8F8F8",
"P c #F9F9F9",
"I c #FBFBFB",
"U c gray99",
"Y c None",
/* pixels */
"YYYYYYY  YYYYYYY",
"Y22rssaaaappe,2Y",
"Yqdxxzzzzlkkks6Y",
"Y0kllkkjjhhggf3Y",
" pllkkjhhgggff0Y",
" zjjjjhhhhhhggs ",
".bpiuiuuuyuytth ",
" SZVVVVBNMMnnNB ",
" ,wrrrrrrrrrq9= ",
" 8$>bnmmMNBB8O< ",
"Xl7fHGGFFFDDv<do",
"1AvssaappppppcC$",
">HHJJHHHHHHHHHG@",
",KIUIPLJLLPIUUK%",
"4,51:=%@+#&-;>*O",
"YYY          YYY"
};
